<?xml version="1.0" encoding="iso-8859-1"?>
<!-- Uploaded to: SVG Repo, www.svgrepo.com, Generator: SVG Repo Mixer Tools -->
<!DOCTYPE svg PUBLIC "-//W3C//DTD SVG 1.1//EN" "http://www.w3.org/Graphics/SVG/1.1/DTD/svg11.dtd">
<svg fill="#000000" version="1.1" id="Capa_1" xmlns="http://www.w3.org/2000/svg" xmlns:xlink="http://www.w3.org/1999/xlink" 
	 width="800px" height="800px" viewBox="0 0 204.504 204.504"
	 xml:space="preserve">
<g>
	<g>
		<path d="M99.542,43.211c10.875,0,19.704-12.623,19.704-23.501C119.246,8.823,110.417,0,99.542,0
			C88.654,0,79.825,8.829,79.825,19.71C79.825,30.589,88.654,43.211,99.542,43.211z"/>
		<path d="M147.067,126.411h-5.59v-5.262c2.181-1.602,3.544-4.189,3.228-7.057l-6.235-56.118c-0.049-0.381-0.243-0.679-0.341-1.041
			c-0.141-0.572-0.268-1.136-0.536-1.659c-0.207-0.393-0.499-0.697-0.761-1.042c-0.348-0.459-0.664-0.917-1.114-1.297
			c-0.354-0.292-0.768-0.472-1.163-0.703c-0.402-0.237-0.73-0.554-1.182-0.718c-0.706-0.252-16.392-5.879-30.808-6.622l-1.982,3.967
			h-0.049l5.249,40.879l-6.235,10.89l-6.235-10.89l5.252-40.879H98.5l-1.982-3.974c-14.416,0.743-30.099,6.366-30.802,6.622
			c-0.457,0.165-0.792,0.493-1.19,0.731c-0.387,0.231-0.801,0.399-1.142,0.691c-0.462,0.387-0.792,0.862-1.154,1.337
			c-0.25,0.335-0.53,0.63-0.73,1.001c-0.274,0.53-0.393,1.105-0.548,1.69c-0.094,0.35-0.286,0.648-0.332,1.017l-6.235,56.118
			c-0.472,4.28,2.609,8.129,6.884,8.604c0.295,0.037,0.582,0.049,0.874,0.049c3.916,0,7.289-2.947,7.733-6.93l5.678-51.118
			c0.664-0.201,1.391-0.411,2.165-0.63v53.198l-6.205,77.138c-0.411,5.151,3.425,9.657,8.573,10.071
			c0.256,0.019,0.505,0.03,0.761,0.03c4.82,0,8.917-3.708,9.31-8.604l5.605-69.722c1.16,0.512,2.433,0.805,3.772,0.805
			c1.339,0,2.618-0.293,3.771-0.805l5.605,69.722c0.39,4.896,4.487,8.604,9.311,8.604c0.256,0,0.505-0.006,0.761-0.03
			c5.146-0.414,8.981-4.926,8.573-10.071l-6.204-77.138V64.067c0.773,0.219,1.491,0.429,2.161,0.63l5.682,51.118
			c0.42,3.751,3.452,6.491,7.069,6.808v3.788h-5.584c-1.717,0-3.117,1.4-3.117,3.117v47.276c0,1.717,1.4,3.117,3.117,3.117h16.368
			c1.711,0,3.117-1.4,3.117-3.117v-47.276C150.186,127.817,148.772,126.411,147.067,126.411z"/>
	</g>
</g>
</svg>