<svg width="16" height="22" viewBox="0 0 16 22" fill="none" xmlns="http://www.w3.org/2000/svg">
<mask id="mask0_254_523" style="mask-type:alpha" maskUnits="userSpaceOnUse" x="0" y="0" width="16" height="22">
<g clip-path="url(#clip0_254_523)">
<path fill-rule="evenodd" clip-rule="evenodd" d="M7.582 0.5C3.203 0.5 0 4.856 0 8.446C0 10.181 0.187 11.828 1.224 13.21L7.092 21.118C7.107 21.137 7.13 21.145 7.146 21.163C7.20456 21.2302 7.27758 21.2832 7.35957 21.3181C7.44156 21.353 7.5304 21.3689 7.61941 21.3646C7.70842 21.3603 7.79529 21.3358 7.8735 21.2931C7.95172 21.2504 8.01924 21.1905 8.071 21.118C9.97625 18.5747 12.3284 15.818 14.1384 13.21C15.5 11 15.525 10.108 15.525 8.446C15.525 4.856 11.961 0.5 7.582 0.5ZM7.58 14.248C4.388 14.248 2.17 11.64 2.17 8.449C2.17 5.256 4.389 2.647 7.58 2.647C10.771 2.647 13.379 5.256 13.379 8.447C13.379 11.64 10.771 14.248 7.58 14.248Z" fill="url(#paint0_linear_254_523)"/>
</g>
</mask>
<g mask="url(#mask0_254_523)">
<rect x="-13" y="-17" width="59" height="66" fill="white"/>
</g>
<defs>
<linearGradient id="paint0_linear_254_523" x1="-4.99963" y1="21" x2="17.5004" y2="-3.5" gradientUnits="userSpaceOnUse">
<stop offset="0.0112" stop-color="#FD225C"/>
<stop offset="1" stop-color="#FE7A40"/>
</linearGradient>
<clipPath id="clip0_254_523">
<rect width="16" height="22" fill="white"/>
</clipPath>
</defs>
</svg>
