<svg width="22" height="22" viewBox="0 0 22 22" fill="none" xmlns="http://www.w3.org/2000/svg">
<mask id="mask0_254_519" style="mask-type:alpha" maskUnits="userSpaceOnUse" x="0" y="0" width="18" height="14">
<g clip-path="url(#clip0_254_519)">
<path d="M15.7256 0H2.27446C1.01495 0 0 1.21266 0 2.71753V11.2825C0 12.7873 1.01495 14 2.27446 14H15.7256C16.9851 14 18 12.7873 18 11.2825V2.71753C18 1.21266 16.9851 0 15.7256 0ZM15.371 1.75325L9 5.87662L2.62908 1.75325H15.371ZM15.7256 12.2468H2.27446C1.83424 12.2468 1.4674 11.8084 1.4674 11.2825V2.89286L8.54756 7.68831C8.68207 7.80519 8.84104 7.87825 9 7.87825C9.15897 7.87825 9.31794 7.8198 9.45245 7.68831L16.5326 2.89286V11.2825C16.5326 11.8231 16.1658 12.2468 15.7256 12.2468Z" fill="url(#paint0_linear_254_519)"/>
</g>
</mask>
<g mask="url(#mask0_254_519)">
<rect y="-9" width="37" height="49" fill="white"/>
</g>
<defs>
<linearGradient id="paint0_linear_254_519" x1="-5.79667" y1="13.7549" x2="6.76142" y2="-9.87407" gradientUnits="userSpaceOnUse">
<stop offset="0.0112" stop-color="#FD225C"/>
<stop offset="1" stop-color="#FE7A40"/>
</linearGradient>
<clipPath id="clip0_254_519">
<rect width="18" height="14" fill="white"/>
</clipPath>
</defs>
</svg>
