<svg width="49" height="36" viewBox="0 0 49 36" fill="none" xmlns="http://www.w3.org/2000/svg">
<g clip-path="url(#clip0_335_194)">
<path d="M45.3633 35.6528H2.8022C2.19161 35.6521 1.60625 35.4091 1.17463 34.9772C0.743001 34.5453 0.500361 33.9599 0.5 33.3493V29.767C0.500722 29.1567 0.74354 28.5715 1.17513 28.1399C1.60671 27.7083 2.19185 27.4656 2.8022 27.4648H45.3633C45.9737 27.4656 46.5588 27.7083 46.9904 28.1399C47.422 28.5715 47.6648 29.1567 47.6655 29.767V33.3493C47.6652 33.9599 47.4225 34.5453 46.9909 34.9772C46.5593 35.4091 45.9739 35.6521 45.3633 35.6528ZM3.22933 32.9235H44.9362V30.1942H3.22933V32.9235Z" fill="white"/>
<path d="M32.0864 30.2032L29.5017 29.3311L38.3583 3.0873C38.3693 3.0572 38.372 3.02466 38.366 2.99318C38.36 2.9617 38.3455 2.93241 38.3242 2.90847C38.2776 2.84825 38.2169 2.80047 38.1474 2.76929C38.0779 2.73811 38.0018 2.72453 37.9258 2.72972H12.644C12.5563 2.72302 12.4686 2.74239 12.3919 2.78536C12.3152 2.82834 12.2528 2.893 12.2128 2.97127L3.16369 30.1977L0.570801 29.3366L9.62398 2.11153C9.84195 1.48656 10.2513 0.946195 10.794 0.567203C11.3366 0.188211 11.9849 -0.0101246 12.6467 0.000398066H37.9285C38.4378 -0.00360151 38.9407 0.113726 39.3956 0.34273C39.8505 0.571734 40.2444 0.905866 40.5446 1.31733C40.8196 1.69297 40.9996 2.12945 41.0695 2.58971C41.1394 3.04997 41.0969 3.52031 40.9457 3.96062L32.0864 30.2032Z" fill="white"/>
<path d="M20.7995 20.2564C19.8715 20.2567 18.9642 19.9817 18.1925 19.4663C17.4207 18.9509 16.8191 18.2181 16.4639 17.3608C16.1086 16.5034 16.0155 15.5599 16.1965 14.6497C16.3775 13.7395 16.8244 12.9033 17.4806 12.2471C18.1369 11.5909 18.973 11.1441 19.8832 10.9631C20.7934 10.7821 21.7369 10.8751 22.5943 11.2304C23.4516 11.5856 24.1843 12.1872 24.6998 12.9589C25.2152 13.7307 25.4902 14.638 25.4899 15.5661C25.4884 16.8096 24.9938 18.0017 24.1145 18.881C23.2352 19.7603 22.043 20.255 20.7995 20.2564ZM20.7995 13.6037C20.4113 13.6034 20.0318 13.7182 19.7089 13.9337C19.386 14.1492 19.1343 14.4555 18.9856 14.8141C18.8368 15.1727 18.7978 15.5673 18.8733 15.948C18.9489 16.3288 19.1357 16.6786 19.4101 16.9532C19.6845 17.2278 20.0341 17.4148 20.4148 17.4906C20.7955 17.5664 21.1902 17.5277 21.5488 17.3792C21.9075 17.2307 22.2141 16.9792 22.4298 16.6564C22.6455 16.3337 22.7606 15.9542 22.7606 15.5661C22.7602 15.046 22.5535 14.5472 22.1859 14.1793C21.8182 13.8114 21.3196 13.6044 20.7995 13.6037Z" fill="white"/>
</g>
<defs>
<clipPath id="clip0_335_194">
<rect width="48" height="36" fill="white" transform="translate(0.5)"/>
</clipPath>
</defs>
</svg>
