<svg width="47" height="32" viewBox="0 0 47 32" fill="none" xmlns="http://www.w3.org/2000/svg">
<path d="M35.4551 0L30.878 4.50605L31.3035 4.9411C31.0004 5.18212 30.6936 5.41727 30.3958 5.62603C29.9151 5.96402 29.4538 6.23514 29.141 6.36229C29.1208 6.37115 29.0358 6.39465 28.8671 6.39393C28.5976 6.39682 28.1468 6.32922 27.5944 6.24626C27.0398 6.16393 26.3763 6.07437 25.6284 6.07356C24.9759 6.07139 24.2564 6.14929 23.4988 6.35425C22.7428 6.15001 22.0246 6.07356 21.3738 6.07437C20.6251 6.07437 19.9616 6.16402 19.407 6.24707C18.8546 6.33003 18.4045 6.39772 18.1351 6.39474C17.9657 6.39618 17.8813 6.37124 17.8641 6.36311C17.5304 6.22863 17.0273 5.92878 16.5094 5.55771C16.2414 5.36594 15.9682 5.15574 15.6973 4.93975L16.122 4.50614L11.5449 9.03226e-05L0 11.7721L4.57708 16.2781L5.91686 14.912L8.87419 17.453C8.95699 17.9402 9.11304 18.4002 9.29296 18.8368C9.4101 19.1146 9.53852 19.382 9.66997 19.6334C9.38403 20.0993 9.22806 20.6313 9.22953 21.1707C9.2288 21.7057 9.37806 22.2524 9.68485 22.7381C10.1514 23.4766 10.8986 23.941 11.7054 24.088C11.71 24.6134 11.8578 25.1491 12.1585 25.6253C12.7296 26.5292 13.7178 27.0303 14.7255 27.0288C14.7643 27.0288 14.8039 27.0229 14.8426 27.0215C14.8934 27.4418 15.0338 27.8607 15.2741 28.2413C15.8452 29.1451 16.8341 29.6463 17.8403 29.6448C17.9403 29.6448 18.0396 29.6345 18.1403 29.6249C18.1881 30.0034 18.3158 30.3811 18.5315 30.722C19.0518 31.5451 19.952 32.0022 20.8677 32C21.3619 32.0007 21.8679 31.8684 22.3173 31.5936L23.6893 30.753C23.9595 30.9249 24.2431 31.0763 24.5409 31.1997C25.0955 31.4297 25.6949 31.5708 26.3182 31.5715C27.0019 31.5745 27.7237 31.3901 28.3447 30.9602C28.7492 30.6825 29.0918 30.3017 29.3724 29.8528C29.4158 29.8543 29.4508 29.8617 29.4956 29.8624C29.78 29.8624 30.092 29.8205 30.4011 29.7257C30.7123 29.6324 31.0214 29.4927 31.3513 29.3069C32.138 28.8704 32.6097 28.2281 32.839 27.6778C32.8897 27.5573 32.9263 27.4441 32.9591 27.3346C33.1495 27.2751 33.3316 27.2023 33.4965 27.1083C34.1048 26.7636 34.5012 26.2398 34.7453 25.7136C34.9901 25.1822 35.0976 24.6304 35.0991 24.0999C35.0991 24.0477 35.0924 23.997 35.0901 23.9456C35.4879 23.7854 35.8454 23.5628 36.15 23.3004C36.462 23.0314 36.724 22.7184 36.9188 22.3613C37.1129 22.0056 37.2428 21.5985 37.2436 21.1525C37.2443 20.8622 37.1838 20.5565 37.0517 20.2699C37.0091 20.1789 36.9487 20.0951 36.8934 20.0106C37.1257 19.6012 37.3622 19.1398 37.5562 18.6416C37.7018 18.2646 37.8243 17.8693 37.8944 17.454L40.9778 14.805L42.4229 16.2783L47 11.7721L35.4551 0ZM12.7363 21.8225L12.6832 21.8556C12.5451 21.9395 12.4003 21.9769 12.251 21.9776C11.9741 21.9762 11.7083 21.8431 11.5524 21.5955C11.4673 21.4596 11.4284 21.3163 11.4284 21.1708C11.4299 20.8967 11.5643 20.6365 11.8151 20.483L13.6282 19.3741C13.7662 19.2896 13.9111 19.2529 14.0588 19.2514C14.3372 19.2543 14.6015 19.3851 14.7583 19.6342L15.692 19.0632L14.7583 19.6349C14.8434 19.7701 14.8814 19.9126 14.8822 20.0582C14.8806 20.2493 14.8112 20.4315 14.6859 20.5785L13.1288 21.5308C12.9871 21.6175 12.8579 21.7182 12.7363 21.8225ZM15.1569 24.742C15.0188 24.8258 14.8739 24.864 14.7254 24.864C14.4477 24.8626 14.1821 24.7303 14.026 24.4826C13.9408 24.3467 13.9028 24.2027 13.9021 24.0572C13.9027 23.8677 13.9722 23.6854 14.0969 23.5399L15.6547 22.5854C15.7958 22.4993 15.9235 22.3995 16.0451 22.2951L16.1018 22.2613C16.2399 22.1768 16.3855 22.1393 16.5325 22.1393C16.8117 22.1407 17.0751 22.273 17.2318 22.5214C17.3169 22.6573 17.355 22.7991 17.3558 22.9454C17.3543 23.218 17.2207 23.4796 16.9669 23.6347L15.1569 24.742ZM20.0825 26.25L18.2717 27.3581C18.1344 27.442 17.9895 27.4801 17.8403 27.4801C17.5633 27.4787 17.2976 27.3464 17.1416 27.0987C17.0565 26.9621 17.0185 26.8195 17.0177 26.6733C17.02 26.3992 17.1535 26.1398 17.4043 25.9854L19.2174 24.8766C19.3555 24.7921 19.5003 24.7554 19.648 24.7554C19.9264 24.756 20.1907 24.8883 20.3475 25.1368C20.4325 25.2728 20.4706 25.4153 20.4714 25.5615C20.4699 25.834 20.3363 26.0941 20.0825 26.25ZM22.8898 28.0576C22.9472 28.148 22.9719 28.242 22.9726 28.3405C22.9712 28.5235 22.8823 28.6976 22.7114 28.8027L21.1565 29.7535C21.064 29.8108 20.9684 29.835 20.8676 29.835C20.6811 29.8343 20.5042 29.7454 20.3989 29.5794C20.3415 29.4875 20.3168 29.3934 20.316 29.2951C20.3182 29.1105 20.4071 28.9378 20.575 28.835H20.5757L22.132 27.8826C22.2269 27.8246 22.3217 27.8003 22.4209 27.8003C22.6083 27.8018 22.7837 27.8892 22.8889 28.0561L23.8234 27.4858L22.8898 28.0576ZM34.9811 21.3375C34.9013 21.4896 34.7191 21.688 34.4885 21.8269C34.2579 21.9673 33.9899 22.0496 33.7331 22.0488C33.642 22.0488 33.554 22.0642 33.4681 22.0862C33.3113 22.0524 33.1546 22.0055 33.0002 21.9452C32.5217 21.7615 32.0747 21.4639 31.7589 21.2125C31.6006 21.0869 31.4752 20.9738 31.3916 20.8951L31.2991 20.8048L31.2789 20.7842L31.2758 20.7813H31.2752C30.9676 20.452 30.4466 20.43 30.1115 20.7327C29.7763 21.0356 29.7532 21.5484 30.0615 21.8806C30.0891 21.9085 30.5035 22.3538 31.1819 22.8124C31.5223 23.0417 31.9291 23.2754 32.397 23.4561C32.5053 23.498 32.618 23.5369 32.7338 23.5722C32.7659 23.6435 32.8069 23.7111 32.8554 23.775L32.8532 23.7766C32.8592 23.7809 32.9039 23.9206 32.9002 24.0999C32.9055 24.399 32.795 24.7906 32.636 25.0066C32.5584 25.1169 32.4793 25.1866 32.4025 25.23C32.3241 25.2727 32.2449 25.3006 32.0964 25.3028L32.0434 25.3021C32.012 25.3006 31.9822 25.3058 31.9516 25.3072C31.9501 25.3072 31.9494 25.3072 31.9494 25.3072C31.2343 25.3102 30.5685 25.0082 30.0773 24.6775C29.8325 24.5144 29.6362 24.3483 29.5041 24.2264C29.4391 24.1661 29.3891 24.1161 29.3585 24.0853L29.3264 24.0515L29.3212 24.0449H29.3205C29.0227 23.7083 28.5039 23.6716 28.1598 23.9648C27.8149 24.2587 27.7776 24.7709 28.0762 25.1104L28.0754 25.1097C28.1076 25.145 28.4882 25.577 29.1504 26.0209C29.5862 26.3111 30.155 26.6116 30.8305 26.7851C30.8231 26.8042 30.8186 26.8233 30.8096 26.8424C30.723 27.0349 30.5991 27.2333 30.2618 27.4273C30.034 27.5553 29.8713 27.6221 29.7571 27.6559C29.6422 27.6897 29.5781 27.6964 29.4959 27.697C29.3892 27.6985 29.2287 27.675 28.9615 27.6213C28.913 27.6111 28.8645 27.6081 28.816 27.6052C28.798 27.5978 28.7809 27.5912 28.7614 27.5816C28.4882 27.4552 28.1553 27.2266 27.9097 27.032C27.7865 26.9357 27.6821 26.8475 27.6104 26.7851L27.5298 26.713L27.5112 26.6954L27.5074 26.6925C27.1782 26.3825 26.6557 26.3942 26.3407 26.7182C26.0265 27.0423 26.0385 27.5567 26.3676 27.866C26.3848 27.8814 26.7319 28.2092 27.2185 28.5531C27.3051 28.6134 27.4006 28.6744 27.4962 28.7346C27.3618 28.9455 27.2215 29.0903 27.0842 29.1865C26.8647 29.335 26.6259 29.4055 26.3183 29.407C26.043 29.4078 25.7189 29.3409 25.3951 29.2057C25.2876 29.1616 25.1824 29.0991 25.0763 29.0411C25.1383 28.8133 25.1726 28.5774 25.1719 28.3407C25.1726 27.8535 25.0368 27.3553 24.7576 26.9137C24.2837 26.1634 23.4932 25.7225 22.6654 25.6504C22.6654 25.621 22.6705 25.5917 22.6705 25.5615C22.6713 25.0273 22.522 24.4791 22.2159 23.9941V23.9956C21.6442 23.0888 20.6544 22.5876 19.6482 22.5898C19.6095 22.5898 19.5698 22.5964 19.5311 22.5979C19.4803 22.1768 19.3399 21.7595 19.0997 21.3788H19.1004C18.6338 20.6388 17.886 20.1745 17.0791 20.0289C17.0739 19.5035 16.9269 18.9678 16.626 18.4916H16.6267C16.0557 17.5871 15.0652 17.0851 14.059 17.0866C13.5148 17.0866 12.9603 17.2336 12.4668 17.5348L11.4077 18.183C11.3823 18.1257 11.3502 18.0698 11.3271 18.0124C11.1428 17.5782 11.027 17.1498 11.0143 16.8544L10.9897 16.3973L7.44656 13.3522L14.1643 6.50273C14.5077 6.77981 14.86 7.05464 15.2213 7.31184C15.8199 7.73659 16.4133 8.11136 17.0194 8.36268C17.4084 8.52066 17.7875 8.55961 18.1354 8.56033C18.6922 8.55816 19.2027 8.46408 19.735 8.38763C19.7693 8.38175 19.8051 8.37886 19.8402 8.37362C19.1087 8.99158 18.4704 9.66034 17.9308 10.2828C17.4762 10.8082 17.0926 11.3035 16.7887 11.7076C16.4887 12.1096 16.2573 12.4337 16.1558 12.5616C15.6557 13.2023 15.4408 13.9687 15.4363 14.7366C15.4385 15.4509 15.6311 16.1945 16.1312 16.8229C16.3805 17.1337 16.7119 17.4056 17.1074 17.5908C17.5024 17.7774 17.9546 17.8729 18.4257 17.8729C19.0101 17.8714 19.6229 17.7318 20.2716 17.4635C22.3078 16.6156 24.4068 16.0505 25.9861 15.7022C26.7759 15.5288 27.4364 15.4083 27.897 15.3326C27.9836 15.3185 28.056 15.3068 28.1277 15.2951L35.0373 21.1592L35.0402 21.1607L35.0425 21.1644C35.0416 21.1854 35.0311 21.2464 34.9811 21.3375ZM35.7806 16.3972L35.7566 16.8543C35.744 17.1159 35.6536 17.4848 35.5021 17.8669C35.4251 18.0668 35.3311 18.2682 35.2327 18.4665L29.1814 13.3314C28.9463 13.1316 28.6328 13.039 28.3246 13.0772C28.2709 13.0875 23.8326 13.6357 19.416 15.4685C18.9763 15.6514 18.6464 15.708 18.4255 15.7065C18.2456 15.7065 18.1358 15.6749 18.0545 15.6367C17.9366 15.5801 17.8522 15.4999 17.7687 15.3464C17.6888 15.1951 17.6343 14.9717 17.6351 14.7365C17.6306 14.3986 17.7531 14.0546 17.8903 13.8916C18.0613 13.674 18.2702 13.3772 18.5584 12.9935C18.986 12.4233 19.5668 11.6855 20.2594 10.9676C20.9505 10.2497 21.7545 9.55451 22.5972 9.0665C23.737 8.40742 24.7081 8.24204 25.6285 8.23905C26.195 8.23833 26.7383 8.3081 27.2684 8.38672C27.7998 8.4639 28.3118 8.55644 28.8672 8.55943C29.2143 8.5587 29.5912 8.51975 29.9787 8.36395L29.9838 8.3625C30.5899 8.11118 31.1833 7.7364 31.7819 7.31166C32.141 7.0559 32.4948 6.77963 32.8367 6.50337L39.4492 13.2455L35.7806 16.3972Z" fill="black"/>
</svg>
