<svg width="48" height="32" viewBox="0 0 48 32" fill="none" xmlns="http://www.w3.org/2000/svg">
<g clip-path="url(#clip0_335_198)">
<path d="M35.9551 0L31.378 4.50605L31.8035 4.9411C31.5004 5.18212 31.1936 5.41727 30.8958 5.62603C30.4151 5.96402 29.9538 6.23514 29.641 6.36229C29.6208 6.37115 29.5358 6.39465 29.3671 6.39393C29.0976 6.39682 28.6468 6.32922 28.0944 6.24626C27.5398 6.16393 26.8763 6.07437 26.1284 6.07356C25.4759 6.07139 24.7564 6.14929 23.9988 6.35425C23.2428 6.15001 22.5246 6.07356 21.8738 6.07437C21.1251 6.07437 20.4616 6.16402 19.907 6.24707C19.3546 6.33003 18.9045 6.39772 18.6351 6.39474C18.4657 6.39618 18.3813 6.37124 18.3641 6.36311C18.0304 6.22863 17.5273 5.92878 17.0094 5.55771C16.7414 5.36594 16.4682 5.15574 16.1973 4.93975L16.622 4.50614L12.0449 9.03226e-05L0.5 11.7721L5.07708 16.2781L6.41686 14.912L9.37419 17.453C9.45699 17.9402 9.61304 18.4002 9.79296 18.8368C9.9101 19.1146 10.0385 19.382 10.17 19.6334C9.88403 20.0993 9.72806 20.6313 9.72953 21.1707C9.7288 21.7057 9.87806 22.2524 10.1848 22.7381C10.6514 23.4766 11.3986 23.941 12.2054 24.088C12.21 24.6134 12.3578 25.1491 12.6585 25.6253C13.2296 26.5292 14.2178 27.0303 15.2255 27.0288C15.2643 27.0288 15.3039 27.0229 15.3426 27.0215C15.3934 27.4418 15.5338 27.8607 15.7741 28.2413C16.3452 29.1451 17.3341 29.6463 18.3403 29.6448C18.4403 29.6448 18.5396 29.6345 18.6403 29.6249C18.6881 30.0034 18.8158 30.3811 19.0315 30.722C19.5518 31.5451 20.452 32.0022 21.3677 32C21.8619 32.0007 22.3679 31.8684 22.8173 31.5936L24.1893 30.753C24.4595 30.9249 24.7431 31.0763 25.0409 31.1997C25.5955 31.4297 26.1949 31.5708 26.8182 31.5715C27.5019 31.5745 28.2237 31.3901 28.8447 30.9602C29.2492 30.6825 29.5918 30.3017 29.8724 29.8528C29.9158 29.8543 29.9508 29.8617 29.9956 29.8624C30.28 29.8624 30.592 29.8205 30.9011 29.7257C31.2123 29.6324 31.5214 29.4927 31.8513 29.3069C32.638 28.8704 33.1097 28.2281 33.339 27.6778C33.3897 27.5573 33.4263 27.4441 33.4591 27.3346C33.6495 27.2751 33.8316 27.2023 33.9965 27.1083C34.6048 26.7636 35.0012 26.2398 35.2453 25.7136C35.4901 25.1822 35.5976 24.6304 35.5991 24.0999C35.5991 24.0477 35.5924 23.997 35.5901 23.9456C35.9879 23.7854 36.3454 23.5628 36.65 23.3004C36.962 23.0314 37.224 22.7184 37.4188 22.3613C37.6129 22.0056 37.7428 21.5985 37.7436 21.1525C37.7443 20.8622 37.6838 20.5565 37.5517 20.2699C37.5091 20.1789 37.4487 20.0951 37.3934 20.0106C37.6257 19.6012 37.8622 19.1398 38.0562 18.6416C38.2018 18.2646 38.3243 17.8693 38.3944 17.454L41.4778 14.805L42.9229 16.2783L47.5 11.7721L35.9551 0ZM13.2363 21.8225L13.1832 21.8556C13.0451 21.9395 12.9003 21.9769 12.751 21.9776C12.4741 21.9762 12.2083 21.8431 12.0524 21.5955C11.9673 21.4596 11.9284 21.3163 11.9284 21.1708C11.9299 20.8967 12.0643 20.6365 12.3151 20.483L14.1282 19.3741C14.2662 19.2896 14.4111 19.2529 14.5588 19.2514C14.8372 19.2543 15.1015 19.3851 15.2583 19.6342C15.3434 19.7694 15.3814 19.9126 15.3822 20.0582C15.3806 20.2493 15.3112 20.4315 15.1859 20.5785L13.6288 21.5308C13.4871 21.6175 13.3579 21.7182 13.2363 21.8225ZM15.6569 24.742C15.5188 24.8258 15.3739 24.864 15.2254 24.864C14.9477 24.8626 14.6821 24.7303 14.526 24.4826C14.4408 24.3467 14.4028 24.2027 14.4021 24.0572C14.4027 23.8677 14.4722 23.6854 14.5969 23.5399L16.1547 22.5854C16.2958 22.4993 16.4235 22.3995 16.5451 22.2951L16.6018 22.2613C16.7399 22.1768 16.8855 22.1393 17.0325 22.1393C17.3117 22.1407 17.5751 22.273 17.7318 22.5214C17.8169 22.6573 17.855 22.7991 17.8558 22.9454C17.8543 23.218 17.7207 23.4796 17.4669 23.6347L15.6569 24.742ZM20.5825 26.25L18.7717 27.3581C18.6344 27.442 18.4895 27.4801 18.3403 27.4801C18.0633 27.4787 17.7976 27.3464 17.6416 27.0987C17.5565 26.9621 17.5185 26.8195 17.5177 26.6733C17.52 26.3992 17.6535 26.1398 17.9043 25.9854L19.7174 24.8766C19.8555 24.7921 20.0003 24.7554 20.148 24.7554C20.4264 24.756 20.6907 24.8883 20.8475 25.1368C20.9325 25.2728 20.9706 25.4153 20.9714 25.5615C20.9699 25.834 20.8363 26.0941 20.5825 26.25ZM23.3898 28.0576C23.4472 28.148 23.4719 28.242 23.4726 28.3405C23.4712 28.5235 23.3823 28.6976 23.2114 28.8027L21.6565 29.7535C21.564 29.8108 21.4684 29.835 21.3676 29.835C21.1811 29.8343 21.0042 29.7454 20.8989 29.5794C20.8415 29.4875 20.8168 29.3934 20.816 29.2951C20.8182 29.1105 20.9071 28.9378 21.075 28.835L22.632 27.8826C22.7269 27.8246 22.8217 27.8003 22.9209 27.8003C23.1083 27.8018 23.2837 27.8892 23.3889 28.0561L24.3234 27.4858L23.3898 28.0576ZM35.4811 21.3375C35.4013 21.4896 35.2191 21.688 34.9885 21.8269C34.7579 21.9673 34.4899 22.0496 34.2331 22.0488C34.142 22.0488 34.054 22.0642 33.9681 22.0862C33.8113 22.0524 33.6546 22.0055 33.5002 21.9452C33.0217 21.7615 32.5747 21.4639 32.2589 21.2125C32.1006 21.0869 31.9752 20.9738 31.8916 20.8951L31.7991 20.8048L31.7789 20.7842L31.7758 20.7813C31.4682 20.452 30.9466 20.43 30.6115 20.7327C30.2763 21.0356 30.2532 21.5484 30.5615 21.8806C30.5891 21.9085 31.0035 22.3538 31.6819 22.8124C32.0223 23.0417 32.4291 23.2754 32.897 23.4561C33.0053 23.498 33.118 23.5369 33.2338 23.5722C33.2659 23.6435 33.3069 23.7111 33.3554 23.775L33.3532 23.7766C33.3592 23.7809 33.4039 23.9206 33.4002 24.0999C33.4055 24.399 33.295 24.7906 33.136 25.0066C33.0584 25.1169 32.9793 25.1866 32.9025 25.23C32.8241 25.2727 32.7449 25.3006 32.5964 25.3028L32.5434 25.3021C32.512 25.3006 32.4822 25.3058 32.4516 25.3072C32.4501 25.3072 32.4494 25.3072 32.4494 25.3072C31.7343 25.3102 31.0685 25.0082 30.5773 24.6775C30.3325 24.5144 30.1362 24.3483 30.0041 24.2264C29.9391 24.1661 29.8891 24.1161 29.8585 24.0853L29.8264 24.0515L29.8212 24.0449C29.5234 23.7083 29.0039 23.6716 28.6598 23.9648C28.3149 24.2587 28.2776 24.7709 28.5762 25.1104L28.5754 25.1097C28.6076 25.145 28.9882 25.577 29.6504 26.0209C30.0862 26.3111 30.655 26.6116 31.3305 26.7851C31.3231 26.8042 31.3186 26.8233 31.3096 26.8424C31.223 27.0349 31.0991 27.2333 30.7618 27.4273C30.534 27.5553 30.3713 27.6221 30.2571 27.6559C30.1422 27.6897 30.0781 27.6964 29.9959 27.697C29.8892 27.6985 29.7287 27.675 29.4615 27.6213C29.413 27.6111 29.3645 27.6081 29.316 27.6052C29.298 27.5978 29.2809 27.5912 29.2614 27.5816C28.9882 27.4552 28.6553 27.2266 28.4097 27.032C28.2865 26.9357 28.1821 26.8475 28.1104 26.7851L28.0298 26.713L28.0112 26.6954L28.0074 26.6925C27.6782 26.3825 27.1557 26.3942 26.8407 26.7182C26.5265 27.0423 26.5385 27.5567 26.8676 27.866C26.8848 27.8814 27.2319 28.2092 27.7185 28.5531C27.8051 28.6134 27.9006 28.6744 27.9962 28.7346C27.8618 28.9455 27.7215 29.0903 27.5842 29.1865C27.3647 29.335 27.1259 29.4055 26.8183 29.407C26.543 29.4078 26.2189 29.3409 25.8951 29.2057C25.7876 29.1616 25.6824 29.0991 25.5763 29.0411C25.6383 28.8133 25.6726 28.5774 25.6719 28.3407C25.6726 27.8535 25.5368 27.3553 25.2576 26.9137C24.7837 26.1634 23.9932 25.7225 23.1654 25.6504C23.1654 25.621 23.1705 25.5917 23.1705 25.5615C23.1713 25.0273 23.022 24.4791 22.7159 23.9941V23.9956C22.1442 23.0888 21.1544 22.5876 20.1482 22.5898C20.1095 22.5898 20.0698 22.5964 20.0311 22.5979C19.9803 22.1768 19.8399 21.7595 19.5997 21.3788C19.1331 20.6388 18.386 20.1745 17.5791 20.0289C17.5739 19.5035 17.4269 18.9678 17.126 18.4916C16.555 17.5871 15.5652 17.0851 14.559 17.0866C14.0148 17.0866 13.4603 17.2336 12.9668 17.5348L11.9077 18.183C11.8823 18.1257 11.8502 18.0698 11.8271 18.0124C11.6428 17.5782 11.527 17.1498 11.5143 16.8544L11.4897 16.3973L7.94656 13.3522L14.6643 6.50273C15.0077 6.77981 15.36 7.05464 15.7213 7.31184C16.3199 7.73659 16.9133 8.11136 17.5194 8.36268C17.9084 8.52066 18.2875 8.55961 18.6354 8.56033C19.1922 8.55816 19.7027 8.46408 20.235 8.38763C20.2693 8.38175 20.3051 8.37886 20.3402 8.37362C19.6087 8.99158 18.9704 9.66034 18.4308 10.2828C17.9762 10.8082 17.5926 11.3035 17.2887 11.7076C16.9887 12.1096 16.7573 12.4337 16.6558 12.5616C16.1557 13.2023 15.9408 13.9687 15.9363 14.7366C15.9385 15.4509 16.1311 16.1945 16.6312 16.8229C16.8805 17.1337 17.2119 17.4056 17.6074 17.5908C18.0024 17.7774 18.4546 17.8729 18.9257 17.8729C19.5101 17.8714 20.1229 17.7318 20.7716 17.4635C22.8078 16.6156 24.9068 16.0505 26.4861 15.7022C27.2759 15.5288 27.9364 15.4083 28.397 15.3326C28.4836 15.3185 28.556 15.3068 28.6277 15.2951L35.5373 21.1592L35.5402 21.1607L35.5425 21.1644C35.5416 21.1854 35.5311 21.2464 35.4811 21.3375ZM36.2806 16.3972L36.2566 16.8543C36.244 17.1159 36.1536 17.4848 36.0021 17.8669C35.9251 18.0668 35.8311 18.2682 35.7327 18.4665L29.6814 13.3314C29.4463 13.1316 29.1328 13.039 28.8246 13.0772C28.7709 13.0875 24.3326 13.6357 19.916 15.4685C19.4763 15.6514 19.1464 15.708 18.9255 15.7065C18.7456 15.7065 18.6358 15.6749 18.5545 15.6367C18.4366 15.5801 18.3522 15.4999 18.2687 15.3464C18.1888 15.1951 18.1343 14.9717 18.1351 14.7365C18.1306 14.3986 18.2531 14.0546 18.3903 13.8916C18.5613 13.674 18.7702 13.3772 19.0584 12.9935C19.486 12.4233 20.0668 11.6855 20.7594 10.9676C21.4505 10.2497 22.2545 9.55451 23.0972 9.0665C24.237 8.40742 25.2081 8.24204 26.1285 8.23905C26.695 8.23833 27.2383 8.3081 27.7684 8.38672C28.2998 8.4639 28.8118 8.55644 29.3672 8.55943C29.7143 8.5587 30.0912 8.51975 30.4787 8.36395L30.4838 8.3625C31.0899 8.11118 31.6833 7.7364 32.2819 7.31166C32.641 7.0559 32.9948 6.77963 33.3367 6.50337L39.9492 13.2455L36.2806 16.3972Z" fill="white"/>
</g>
<defs>
<clipPath id="clip0_335_198">
<rect width="47" height="32" fill="white" transform="translate(0.5)"/>
</clipPath>
</defs>
</svg>
