<svg width="29" height="36" viewBox="0 0 29 36" fill="none" xmlns="http://www.w3.org/2000/svg">
<path d="M28.9975 0.929363C28.9975 0.424433 28.5829 0.0146356 28.072 0.0146356H21.9477C21.9231 0.0121963 21.9021 0 21.8762 0H12.0573C12.0314 0 12.0104 0.0121963 11.9857 0.0146356H3.64027C3.60572 0.013416 3.565 0.0121964 3.52428 0.0121964C1.6227 0.0121964 0.0728054 1.50015 0 3.36132V3.36742V33.1131C0.139441 34.7365 1.5067 36 3.17382 36C3.25156 36 3.32807 35.9976 3.40458 35.9915H3.39471H28.0745C28.5854 35.9915 29 35.5817 29 35.0767C29 34.5718 28.5854 34.162 28.0745 34.162H3.6415C3.61312 34.1632 3.5798 34.1644 3.54649 34.1644C2.66172 34.1644 1.9349 33.4973 1.85222 32.6436V32.6362V31.1446C1.85222 30.5848 2.57287 30.0945 3.39224 30.0945L28.0745 30.164C28.3299 30.164 28.5619 30.0616 28.7285 29.8957C28.7495 29.875 28.7594 29.8457 28.7779 29.8225C28.8359 29.7603 28.8852 29.6884 28.9235 29.6115L28.926 29.6067C28.9457 29.5469 28.9617 29.4786 28.9679 29.4066V29.403C28.9815 29.3603 28.9926 29.3091 28.9988 29.2554V29.2518V29.2493L28.9975 0.929363ZM27.1465 28.3358L8.0197 28.2821V1.84409H11.1306V14.5868C11.1306 14.5868 11.1306 14.5868 11.1306 14.5881C11.1306 15.093 11.5452 15.5016 12.0548 15.5016C12.2782 15.5016 12.483 15.4235 12.6422 15.293L12.641 15.2942L16.9723 11.7951L21.2962 15.215C21.4529 15.3394 21.6541 15.415 21.8737 15.415C22.3846 15.415 22.7992 15.0052 22.8004 14.5003V1.84409H27.1453L27.1465 28.3358ZM20.9507 1.84409V12.5964L17.5449 9.90345C17.3882 9.77782 17.187 9.70221 16.9674 9.70221C16.744 9.70221 16.5392 9.78026 16.3787 9.91198L16.38 9.91076L12.9816 12.6574V1.84409H20.9507ZM1.84975 28.598V3.36864C1.93243 2.50879 2.66048 1.84165 3.54525 1.84165C3.57857 1.84165 3.61189 1.84287 3.64397 1.84409H3.63904H6.16872V28.276L3.39224 28.2687C2.83324 28.2712 2.30263 28.3919 1.82631 28.6078L1.84975 28.598Z" fill="black"/>
</svg>
