<svg width="48" height="36" viewBox="0 0 48 36" fill="none" xmlns="http://www.w3.org/2000/svg">
<path d="M44.8633 35.6522H2.3022C1.69161 35.6515 1.10625 35.4085 0.674627 34.9766C0.243001 34.5447 0.000361084 33.9593 0 33.3487V29.7664C0.000722316 29.1561 0.24354 28.5709 0.675127 28.1393C1.10671 27.7077 1.69185 27.465 2.3022 27.4642H44.8633C45.4737 27.465 46.0588 27.7077 46.4904 28.1393C46.922 28.5709 47.1648 29.1561 47.1655 29.7664V33.3487C47.1652 33.9593 46.9225 34.5447 46.4909 34.9766C46.0593 35.4085 45.4739 35.6515 44.8633 35.6522ZM2.72933 32.9229H44.4362V30.1936H2.72933V32.9229Z" fill="black"/>
<path d="M31.5864 30.2032L29.0017 29.3311L37.8583 3.0873C37.8693 3.0572 37.872 3.02466 37.866 2.99318C37.86 2.9617 37.8455 2.93241 37.8242 2.90847C37.7776 2.84825 37.7169 2.80047 37.6474 2.76929C37.5779 2.73811 37.5018 2.72453 37.4258 2.72972H12.144C12.0563 2.72302 11.9686 2.74239 11.8919 2.78536C11.8152 2.82834 11.7528 2.893 11.7128 2.97127L2.66369 30.1977L0.0708008 29.3366L9.12398 2.11153C9.34195 1.48656 9.75135 0.946195 10.294 0.567203C10.8366 0.188211 11.4849 -0.0101246 12.1467 0.000398068H37.4285C37.9378 -0.00360151 38.4407 0.113726 38.8956 0.34273C39.3505 0.571734 39.7444 0.905866 40.0446 1.31733C40.3196 1.69297 40.4996 2.12945 40.5695 2.58971C40.6394 3.04997 40.5969 3.52031 40.4457 3.96062L31.5864 30.2032Z" fill="black"/>
<path d="M20.2995 20.2561C19.3715 20.2564 18.4642 19.9814 17.6925 19.466C16.9207 18.9506 16.3191 18.2178 15.9639 17.3605C15.6086 16.5031 15.5155 15.5596 15.6965 14.6494C15.8775 13.7392 16.3244 12.903 16.9806 12.2468C17.6369 11.5906 18.473 11.1438 19.3832 10.9628C20.2934 10.7818 21.2369 10.8748 22.0943 11.2301C22.9516 11.5853 23.6843 12.1869 24.1998 12.9586C24.7152 13.7304 24.9902 14.6377 24.9899 15.5658C24.9884 16.8093 24.4938 18.0014 23.6145 18.8807C22.7352 19.76 21.543 20.2547 20.2995 20.2561ZM20.2995 13.6034C19.9113 13.6031 19.5318 13.7179 19.2089 13.9334C18.886 14.1489 18.6343 14.4552 18.4856 14.8138C18.3368 15.1724 18.2978 15.567 18.3733 15.9477C18.4489 16.3285 18.6357 16.6783 18.9101 16.9529C19.1845 17.2275 19.5341 17.4145 19.9148 17.4903C20.2955 17.5661 20.6902 17.5274 21.0488 17.3789C21.4075 17.2304 21.7141 16.9789 21.9298 16.6561C22.1455 16.3334 22.2606 15.9539 22.2606 15.5658C22.2602 15.0457 22.0535 14.5469 21.6859 14.179C21.3182 13.8111 20.8196 13.6041 20.2995 13.6034Z" fill="black"/>
</svg>
