<svg width="19" height="19" viewBox="0 0 19 19" fill="none" xmlns="http://www.w3.org/2000/svg">
<mask id="mask0_254_515" style="mask-type:alpha" maskUnits="userSpaceOnUse" x="0" y="0" width="19" height="19">
<g clip-path="url(#clip0_254_515)">
<path d="M18.0069 12.9673L16.0951 11.401C14.8478 10.3811 12.9178 10.4767 11.7798 11.615L11.7024 11.6924C11.5112 11.8836 11.2017 11.8836 11.015 11.6924L7.32336 7.99985C7.13673 7.81318 7.13217 7.51268 7.31425 7.32145C7.31881 7.31689 7.31881 7.31234 7.32336 7.31234L7.31425 7.32145C7.31881 7.31689 7.31881 7.31689 7.32336 7.31234C8.45225 6.16952 8.5615 4.22991 7.57372 2.97781L6.02149 1.01543C5.02005 -0.24577 3.2903 -0.345938 2.1523 0.792332L1.86553 1.07918C-0.146452 3.09619 -0.62441 6.7341 0.891401 9.15178C0.891401 9.15178 1.78359 11.2189 4.7879 14.2239C7.79221 17.2289 9.85881 18.1213 9.85881 18.1213C12.2987 19.5965 15.913 19.1595 17.9295 17.1424L18.2026 16.8693C19.3361 15.7355 19.2496 13.9872 18.0069 12.9673ZM16.8279 15.4988L16.5548 15.772C15.171 17.1561 12.54 17.4748 10.8648 16.4595L10.751 16.3912L10.6281 16.3365C10.4779 16.2728 10.1001 16.0679 9.53107 15.6855C8.52053 15.007 7.38253 14.0737 6.15805 12.8489C4.93357 11.6241 4.00041 10.4904 3.32216 9.4796C2.9398 8.91047 2.73496 8.53257 2.67123 8.38231L2.61205 8.24572L2.53467 8.11823C1.51503 6.49279 1.84732 3.84745 3.24023 2.44965L3.527 2.16281C3.84109 1.84865 4.2189 1.86686 4.49658 2.21745L6.0488 4.17982C6.43117 4.66245 6.3811 5.50477 5.93955 5.94642C5.00185 6.89801 5.0064 8.42784 5.94866 9.37033L9.64032 13.0629C10.5872 14.0099 12.1257 14.0099 13.0771 13.0629L13.1545 12.9855C13.5869 12.5529 14.3926 12.5165 14.866 12.9035L16.7779 14.4698C17.1329 14.7612 17.1511 15.1755 16.8279 15.4988Z" fill="url(#paint0_linear_254_515)"/>
</g>
</mask>
<g mask="url(#mask0_254_515)">
<rect x="-20" y="-39" width="84" height="150" fill="white"/>
</g>
<defs>
<linearGradient id="paint0_linear_254_515" x1="-6.11836" y1="18.6624" x2="13.0322" y2="-9.36926" gradientUnits="userSpaceOnUse">
<stop offset="0.0112" stop-color="#FD225C"/>
<stop offset="1" stop-color="#FE7A40"/>
</linearGradient>
<clipPath id="clip0_254_515">
<rect width="19" height="19" fill="white"/>
</clipPath>
</defs>
</svg>
